# AST/ASF file generated using VICON BodyLanguage
# -----------------------------------------------
:version 1.10
:name VICON
:units
  mass 1.0
  length 0.45
  angle deg
:documentation
   .ast/.asf automatically generated from VICON data using
   VICON BodyBuilder and BodyLanguage model FoxedUp or BRILLIANT.MOD
:root
   order TX TY TZ RX RY RZ
   axis XYZ
   position 0 0 0  
   orientation 0 0 0 
:bonedata
  begin
     id 1 
     name lhipjoint
     direction 0.655637 -0.713449 0.247245 
     length 2.52691 
     axis 0 0 0  XYZ
  end
  begin
     id 2 
     name lfemur
     direction 0.34202 -0.939693 0  
     length 7.59371  
     axis 0 0 20  XYZ
    dof rx ry rz
    limits (-160.0 20.0)
           (-70.0 70.0)
           (-60.0 70.0)
  end
  begin
     id 3 
     name ltibia
     direction 0.34202 -0.939693 0   
     length 7.28717   
     axis 0 0 20   XYZ
    dof rx
    limits (-10.0 170.0)
  end
  begin
     id 4 
     name lfoot
     direction 0.0886837 -0.243657 0.965798   
     length 2.2218   
     axis -90 7.62852e-016 20   XYZ
    dof rx rz
    limits (-45.0 90.0)
           (-70.0 20.0)
  end
  begin
     id 5 
     name ltoes
     direction 1.53547e-011 -4.22004e-011 1   
     length 1.11249   
     axis -90 7.62852e-016 20   XYZ
    dof rx
    limits (-90.0 20.0)
  end
  begin
     id 6 
     name rhipjoint
     direction -0.645062 -0.722004 0.250209   
     length 2.49697  
     axis 0 0 0  XYZ 
  end
  begin
     id 7 
     name rfemur
     direction -0.34202 -0.939693 0   
     length 7.58734   
     axis 0 0 -20   XYZ
    dof rx ry rz
    limits (-160.0 20.0)
           (-70.0 70.0)
           (-70.0 60.0)
  end
  begin
     id 8 
     name rtibia
     direction -0.34202 -0.939693 0   
     length 7.21538   
     axis 0 0 -20   XYZ
    dof rx
    limits (-10.0 170.0)
 end
 begin
     id 9 
     name rfoot
     direction -0.102907 -0.282735 0.953662   
     length 2.23735  
     axis -90 -7.62852e-016 -20   XYZ
    dof rx rz
    limits (-45.0 90.0)
           (-20.0 70.0)
  end
  begin
     id 10 
     name rtoes
     direction -1.5354e-011 -4.21751e-011 1   
     length 1.11569   
     axis -90 -7.62852e-016 -20   XYZ
    dof rx
    limits (-90.0 20.0)
  end
  begin
     id 11 
     name lowerback
     direction 0.00952301 0.997604 -0.0685217   
     length 2.05943   
     axis 0 0 0   XYZ
    dof rx ry rz
    limits (-20.0 45.0)
           (-30.0 30.0)
           (-30.0 30.0)
  end
  begin
     id 12 
     name upperback
     direction 0.00494399 0.999577 -0.0286701   
     length 2.06523   
     axis 0 0 0   XYZ
    dof rx ry rz
    limits (-20.0 45.0)
           (-30.0 30.0)
           (-30.0 30.0)
  end
  begin
     id 13 
     name thorax
     direction 0.000729686 0.999992 0.00388603   
     length 2.06807   
     axis 0 0 0   XYZ
    dof rx ry rz
    limits (-20.0 45.0)
           (-30.0 30.0)
           (-30.0 30.0)
  end
  begin
     id 14 
     name lowerneck
     direction 0.00452882 0.995459 0.0950816   
     length 1.57426   
     axis 0 0 0   XYZ
    dof rx ry rz
    limits (-20.0 45.0)
           (-30.0 30.0)
           (-30.0 30.0)
  end
  begin
     id 15 
     name upperneck
     direction 0.021922 0.997711 -0.0639762   
     length 1.56399   
     axis 0 0 0   XYZ
    dof rx ry rz
    limits (-20.0 45.0)
           (-30.0 30.0)
           (-30.0 30.0)
  end
  begin
     id 16
     name head
     direction 0.008024 0.999444 -0.0323691  
     length 1.6265  
     axis 0 0 0   XYZ
    dof rx ry rz
    limits (-20.0 45.0)
           (-30.0 30.0)
           (-30.0 30.0)
  end
  begin
     id 17 
     name lclavicle
     direction 0.967826 0.247107 -0.0474446  
     length 3.6598  
     axis 0 0 0   XYZ
    dof ry rz
    limits (-20.0 10.0)
           (0.0 20.0)
  end
  begin
     id 18 
     name lhumerus
     direction 1 -4.48971e-011 -2.90544e-027   
     length 4.86513   
     axis 180 -30 -90   XYZ
    dof rx ry rz
    limits (-60.0 90.0)
           (-90.0 90.0)
           (-90.0 90.0)
  end
  begin
     id 19
     name lradius
     direction 1 -4.48958e-011 1.79638e-026   
     length 3.35554   
     axis 180 -30 -90   XYZ
    dof rx
    limits (-10.0 170.0)
  end
  begin
     id 20
     name lwrist
     direction 1 -4.48952e-011 3.34345e-026   
     length 1.67777   
     axis -2.22354e-014 90 90   XYZ
    dof ry
    limits (-180.0 0.0)
 end
  begin
     id 21 
     name lhand
     direction 1 -4.49055e-011 6.6869e-026   
     length 0.661175   
     axis -4.26681e-014 90 90   XYZ
    dof rx rz
    limits (-90.0 90.0)
           (-45.0 45.0)
  end
  begin
     id 22 
     name lfingers
     direction 1 -4.48731e-011 1.33738e-025   
     length 0.533057   
     axis -8.53362e-014 90 90   XYZ
    dof rx
    limits (0.0 90.0)
  end
  begin
     id 23
     name lthumb
     direction 0.707107 -6.35005e-011 0.707107   
     length 0.765366   
     axis -90 45 2.85299e-015   XYZ
    dof rx rz
    limits (-45.0 45.0)
           (-45.0 45.0)
  end
  begin
     id 24 
     name rclavicle
     direction -0.973174 0.211421 -0.0907389   
     length 3.59444  
     axis 0 0 0   XYZ 
    dof ry rz
    limits (-10.0 20.0)
           (-20.0 0.0)
  end
  begin
     id 25 
     name rhumerus
     direction -1 -4.48964e-011 1.56311e-027  
     length 5.02649   
     axis 180 30 90   XYZ
    dof rx ry rz
    limits (-90.0 60.0)
           (-90.0 90.0)
           (-90.0 90.0)
  end
  begin
     id 26 
     name rradius
     direction -1 -4.48948e-011 2.01724e-026   
     length 3.36431   
     axis 180 30 90   XYZ
    dof rx
    limits (-10.0 170.0)
  end
  begin
     id 27 
     name rwrist
     direction -1 -4.49008e-011 3.34345e-026   
     length 1.68216   
     axis -2.22354e-014 -90 -90   XYZ
    dof ry
    limits (-180.0 0.0)
  end
  begin
     id 28
     name rhand
     direction -1 -4.49013e-011 6.6869e-026   
     length 0.730406   
     axis -4.26681e-014 -90 -90   XYZ
    dof rx rz
    limits (-90.0 90.0)
           (-45.0 45.0)
  end
  begin
     id 29
     name rfingers
     direction -1 -4.48867e-011 1.33738e-025   
     length 0.588872   
     axis -8.53362e-014 -90 -90   XYZ
    dof rx
    limits (0.0 90.0)
  end
  begin
     id 30
     name rthumb
     direction -0.707107 -6.34907e-011 0.707107   
     length 0.845506   
     axis -90 -45 -2.85299e-015   XYZ
    dof rx rz
    limits (-45.0 45.0)
           (-45.0 45.0)
  end
:hierarchy
  begin
    root lhipjoint rhipjoint lowerback
    lhipjoint lfemur
    lfemur ltibia
    ltibia lfoot
    lfoot ltoes
    rhipjoint rfemur
    rfemur rtibia
    rtibia rfoot
    rfoot rtoes
    lowerback upperback
    upperback thorax
    thorax lowerneck lclavicle rclavicle
    lowerneck upperneck
    upperneck head
    lclavicle lhumerus
    lhumerus lradius
    lradius lwrist
    lwrist lhand lthumb
    lhand lfingers
    rclavicle rhumerus
    rhumerus rradius
    rradius rwrist
    rwrist rhand rthumb
    rhand rfingers
  end

#!OML:ASF H:\Terrain\Patient Classification 1\Takeo\Monday\TakeoMonday.ASF
:FULLY-SPECIFIED
:DEGREES
211
root 10.9267 14.1491 0.306749 17.6785 4.78594 3.87691
lowerback 32.5566 -1.94787 -2.08163
upperback 4.65772 -3.2941 -1.18623
thorax -11.5677 -1.40859 1.11778
lowerneck -14.951 -0.941747 -1.0634
upperneck -26.6777 -1.30909 -0.418232
head -5.83732 -0.517896 0.0498908
rclavicle 1.98785e-014 1.90833e-014
rhumerus -33.7108 12.0495 -92.0199
rradius 57.1379
rwrist -33.1814
rhand -36.9113 22.586
rfingers 7.12502
rthumb -9.98908 -7.15698
lclavicle 1.98785e-014 1.90833e-014
lhumerus -14.9215 -16.9421 81.375
lradius 53.4611
lwrist 15.2763
lhand -32.6667 16.0465
lfingers 7.12502
lthumb -5.8924 45.9446
rfemur -66.9921 4.17906 15.4105
rtibia 94.7966
rfoot -30.1659 -13.7217
rtoes -13.049
lfemur -64.4308 -3.94557 -27.9301
ltibia 89.5783
lfoot -30.0258 10.7973
ltoes -7.16784
212
root 10.9435 14.2182 0.310945 17.8938 4.61884 4.21265
lowerback 32.6147 -1.90082 -2.32655
upperback 4.65487 -3.33261 -1.28432
thorax -11.5858 -1.41691 1.16035
lowerneck -14.9734 -1.11957 -0.897258
upperneck -26.4617 -1.58299 -0.451568
head -5.76291 -0.671913 0.0111906
rclavicle -1.66979e-014 -1.19271e-014
rhumerus -33.3757 11.8208 -91.9897
rradius 56.463
rwrist -32.9874
rhand -36.5649 20.1517
rfingers 7.12502
rthumb -9.65486 -9.60702
lclavicle -1.66979e-014 -1.19271e-014
lhumerus -15.2121 -16.4162 81.9766
lradius 52.2842
lwrist 15.2136
lhand -32.1884 16.9129
lfingers 7.12502
lthumb -5.43067 46.8233
rfemur -66.7418 4.16893 14.703
rtibia 94.0665
rfoot -30.2148 -13.0428
rtoes -11.9526
lfemur -64.09 -4.20506 -28.2442
ltibia 88.7203
lfoot -30.0313 10.6692
ltoes -5.43177
213
root 10.96 14.3027 0.314823 17.9357 4.52461 3.91183
lowerback 32.66 -1.93088 -2.13193
upperback 4.77961 -3.28963 -1.20156
thorax -11.4706 -1.40697 1.12592
lowerneck -14.9808 -1.07452 -0.642154
upperneck -26.5134 -1.58785 -0.641927
head -5.78221 -0.690143 -0.0939308
rclavicle -9.93923e-015 -6.36111e-015
rhumerus -32.936 11.6006 -91.9427
rradius 55.7498
rwrist -32.544
rhand -36.1773 19.6779
rfingers 7.12502
rthumb -9.28087 -10.0978
lclavicle -9.93923e-015 -6.36111e-015
lhumerus -15.3666 -15.7843 82.424
lradius 51.0371
lwrist 15.3335
lhand -32.169 17.5005
lfingers 7.12502
lthumb -5.41194 47.4114
rfemur -66.1525 4.48896 14.7123
rtibia 93.1014
rfoot -30.3584 -12.6032
rtoes -11.7649
lfemur -63.748 -4.17752 -27.9158
ltibia 87.9196
lfoot -29.8007 10.6525
ltoes -4.46044
214
root 10.972 14.388 0.315755 17.9787 4.54001 3.35507
lowerback 32.6479 -1.98982 -1.7459
upperback 4.88895 -3.19977 -0.982978
thorax -11.3525 -1.38148 1.11486
lowerneck -15.3859 -0.954854 -0.612522
upperneck -26.1327 -1.43429 -0.741132
head -5.59909 -0.616378 -0.134824
rclavicle 1.98785e-014 -6.75868e-015
rhumerus -32.5642 11.3117 -91.7972
rradius 55.022
rwrist -31.9331
rhand -35.6981 20.1292
rfingers 7.12502
rthumb -8.81852 -9.66656
lclavicle 1.98785e-014 -6.75868e-015
lhumerus -15.7677 -15.2394 82.96
lradius 50.0016
lwrist 15.6255
lhand -32.7135 16.7549
lfingers 7.12502
lthumb -5.93758 46.6517
rfemur -65.5495 4.81184 15.1262
rtibia 92.0279
rfoot -30.5021 -12.5124
rtoes -12.538
lfemur -63.4231 -4.15192 -27.2492
ltibia 87.1491
lfoot -29.5617 10.529
ltoes -5.12828
215
root 10.9775 14.4634 0.312571 18.1287 4.33626 3.35363
lowerback 32.705 -1.85786 -1.9339
upperback 4.86871 -3.08044 -0.83597
thorax -11.3827 -1.31894 1.32827
lowerneck -15.776 -0.92836 -1.12656
upperneck -25.6162 -1.29504 -0.575876
head -5.37042 -0.511963 0.00287031
rclavicle -2.18663e-014 -9.74045e-015
rhumerus -32.4098 10.8332 -91.4914
rradius 54.3437
rwrist -31.3726
rhand -35.0478 20.8289
rfingers 7.12502
rthumb -8.19088 -8.99236
lclavicle -2.18663e-014 -9.74045e-015
lhumerus -16.3354 -15.0121 83.644
lradius 48.9585
lwrist 16.2656
lhand -33.2237 15.8758
lfingers 7.12502
lthumb -6.43021 45.7582
rfemur -65.2631 4.94923 14.9963
rtibia 91.0789
rfoot -30.5163 -12.4769
rtoes -13.1255
lfemur -63.0978 -4.12985 -27.2018
ltibia 86.3211
lfoot -29.4327 10.2542
ltoes -4.89325
216
root 10.9794 14.5296 0.306421 18.3297 3.96659 3.44013
lowerback 32.6334 -1.64974 -2.30991
upperback 4.87571 -2.93512 -0.754732
thorax -11.3262 -1.24118 1.5581
lowerneck -15.8385 -0.888117 -1.54851
upperneck -25.4933 -1.16273 -0.443862
head -5.31939 -0.414453 0.116848
rclavicle -2.38542e-014 -9.74045e-015
rhumerus -32.3184 10.3789 -91.2105
rradius 53.7339
rwrist -30.9759
rhand -34.3953 22.509
rfingers 7.12502
rthumb -7.56117 -7.33588
lclavicle -2.38542e-014 -9.74045e-015
lhumerus -16.6779 -14.6677 84.1124
lradius 47.7305
lwrist 16.4112
lhand -32.0854 16.6578
lfingers 7.12502
lthumb -5.33117 46.5707
rfemur -65.1343 5.13787 14.8258
rtibia 90.119
rfoot -30.0776 -12.7325
rtoes -12.8256
lfemur -62.9532 -3.94458 -27.3151
ltibia 85.4981
lfoot -29.3558 10.1255
ltoes -3.3966
217
root 10.9844 14.605 0.306303 18.6547 3.75741 3.08439
lowerback 32.2581 -1.60438 -2.18287
upperback 4.8827 -2.81592 -0.661697
thorax -11.1712 -1.19626 1.53465
lowerneck -15.932 -0.821682 -1.57521
upperneck -25.3148 -1.05264 -0.377393
head -5.24763 -0.362755 0.142341
rclavicle -1.98785e-016 7.95139e-015
rhumerus -32.2717 10.2961 -91.14
rradius 53.1084
rwrist -30.9237
rhand -34.0537 23.9874
rfingers 7.12502
rthumb -7.23144 -5.86903
lclavicle -1.98785e-016 7.95139e-015
lhumerus -17.0243 -14.1318 84.3348
lradius 46.5756
lwrist 16.0291
lhand -30.132 17.4166
lfingers 7.12502
lthumb -3.44495 47.3685
rfemur -65.0014 5.47668 15.0765
rtibia 88.9669
rfoot -29.6265 -12.781
rtoes -11.2036
lfemur -63.019 -3.77894 -26.9077
ltibia 84.6434
lfoot -29.1004 10.2131
ltoes -2.42144
218
root 10.993 14.6986 0.311448 18.8992 3.63402 2.74568
lowerback 31.9982 -1.62208 -1.91779
upperback 4.83979 -2.74124 -0.6165
thorax -11.1257 -1.17337 1.40766
lowerneck -16.2659 -0.826975 -1.53078
upperneck -24.85 -1.0397 -0.292295
head -5.04883 -0.36966 0.159676
rclavicle 2.84262e-014 -9.34288e-015
rhumerus -32.4071 10.1434 -91.1579
rradius 52.6772
rwrist -30.7789
rhand -34.1571 24.1846
rfingers 7.12502
rthumb -7.33117 -5.66838
lclavicle 2.84262e-014 -9.34288e-015
lhumerus -17.6364 -13.9238 84.6398
lradius 45.5543
lwrist 16.9286
lhand -30.7621 16.3086
lfingers 7.12502
lthumb -4.05344 46.2498
rfemur -64.7153 5.73308 15.3201
rtibia 87.7382
rfoot -29.169 -12.716
rtoes -10.1385
lfemur -62.8124 -3.70564 -26.5264
ltibia 83.6698
lfoot -28.6418 10.4319
ltoes -2.01498
219
root 10.9986 14.8008 0.312766 18.8527 3.58845 2.32861
lowerback 32.0773 -1.65677 -1.59275
upperback 4.85411 -2.66913 -0.54356
thorax -11.1554 -1.15109 1.28572
lowerneck -16.8076 -0.860532 -1.48967
upperneck -24.3131 -1.05967 -0.191876
head -4.79922 -0.39365 0.180975
rclavicle -3.598e-014 7.7526e-015
rhumerus -32.5891 9.80607 -91.124
rradius 52.4464
rwrist -30.402
rhand -34.3235 23.9139
rfingers 7.12502
rthumb -7.4918 -5.93347
lclavicle -3.598e-014 7.7526e-015
lhumerus -18.346 -13.642 84.9432
lradius 44.6802
lwrist 18.1411
lhand -31.7374 15.0177
lfingers 7.12502
lthumb -4.99521 44.9388
rfemur -64.0722 5.90444 15.8372
rtibia 86.4302
rfoot -28.3563 -13.2896
rtoes -11.0521
lfemur -62.2414 -3.66296 -26.0356
ltibia 82.64
lfoot -28.1025 10.5263
ltoes -1.4334
220
root 11.0045 14.9072 0.312834 18.8913 3.51195 2.03971
lowerback 32.0244 -1.6665 -1.42792
upperback 4.88904 -2.61997 -0.499032
thorax -11.101 -1.13576 1.22418
lowerneck -16.839 -0.874178 -1.35934
upperneck -24.2989 -1.08931 -0.138197
head -4.79011 -0.423562 0.175797
rclavicle 1.63003e-014 -1.78906e-015
rhumerus -32.4948 9.56614 -91.0352
rradius 51.8777
rwrist -30.0956
rhand -34.2081 23.8779
rfingers 7.12502
rthumb -7.38048 -5.97333
lclavicle 1.63003e-014 -1.78906e-015
lhumerus -18.9187 -12.8893 85.053
lradius 44.0126
lwrist 17.9371
lhand -30.3377 15.5778
lfingers 7.12502
lthumb -3.64358 45.5264
rfemur -63.5665 5.9794 16.1974
rtibia 85.1758
rfoot -27.4156 -13.6639
rtoes -11.2623
lfemur -61.7522 -3.71468 -25.654
ltibia 81.5127
lfoot -27.4253 10.7088
ltoes -0.864585
221
root 11.0148 15.0134 0.31643 19.1572 3.32848 2.07771
lowerback 31.6905 -1.62477 -1.49797
upperback 4.88571 -2.59299 -0.545132
thorax -10.9672 -1.12505 1.19473
lowerneck -16.5236 -0.85663 -1.20106
upperneck -24.5776 -1.10892 -0.218262
head -4.92464 -0.44234 0.125525
rclavicle 1.09332e-014 2.78299e-015
rhumerus -32.3358 9.24292 -90.899
rradius 51.1411
rwrist -29.7367
rhand -34.1111 23.9561
rfingers 7.12502
rthumb -7.28683 -5.89842
lclavicle 1.09332e-014 2.78299e-015
lhumerus -19.3847 -12.1125 85.0876
lradius 43.5
lwrist 17.3343
lhand -28.0598 17.5133
lfingers 7.12502
lthumb -1.44368 47.4881
rfemur -63.3548 5.94231 16.1114
rtibia 84.0169
rfoot -26.4015 -13.6292
rtoes -10.8756
lfemur -61.3378 -3.83288 -25.654
ltibia 80.254
lfoot -26.8839 10.9228
ltoes -0.530604
222
root 11.0231 15.1303 0.322301 19.3168 3.19789 1.74623
lowerback 31.5525 -1.61615 -1.24927
upperback 4.77489 -2.49486 -0.482876
thorax -11.044 -1.0879 1.09045
lowerneck -16.3919 -0.768523 -1.10045
upperneck -24.5234 -1.02147 -0.339483
head -4.92633 -0.402575 0.0706913
rclavicle 2.48481e-014 -9.93923e-015
rhumerus -32.6244 9.01503 -90.7861
rradius 50.7225
rwrist -29.4734
rhand -34.1357 24.3317
rfingers 7.12502
rthumb -7.31053 -5.52204
lclavicle 2.48481e-014 -9.93923e-015
lhumerus -20.1108 -11.7367 85.2394
lradius 43
lwrist 17.645
lhand -27.1531 18.7256
lfingers 7.12502
lthumb -0.567984 48.7046
rfemur -62.9374 6.16051 16.3778
rtibia 82.7722
rfoot -25.5711 -13.5282
rtoes -10.3366
lfemur -60.8097 -3.77422 -25.2482
ltibia 78.9466
lfoot -26.3945 11.023
ltoes -1.25194
223
root 11.0251 15.2541 0.328202 19.2573 3.05433 1.41505
lowerback 31.7239 -1.56974 -1.1432
upperback 4.56059 -2.39466 -0.368645
thorax -11.3565 -1.04008 1.12671
lowerneck -16.1932 -0.667732 -1.06998
upperneck -24.3235 -0.896468 -0.395332
head -4.88935 -0.341833 0.0489162
rclavicle 2.64384e-014 -1.59028e-015
rhumerus -33.1815 9.01283 -90.6906
rradius 50.3649
rwrist -29.305
rhand -33.981 24.7046
rfingers 7.12502
rthumb -7.16119 -5.15419
lclavicle 2.64384e-014 -1.59028e-015
lhumerus -21.2341 -11.5329 85.5327
lradius 42.4977
lwrist 18.4202
lhand -27.7667 18.6105
lfingers 7.12502
lthumb -1.16058 48.5871
rfemur -62.239 6.5153 16.5858
rtibia 81.5171
rfoot -25.072 -13.2161
rtoes -9.39262
lfemur -60.0481 -3.61502 -24.8363
ltibia 77.5895
lfoot -25.776 11.1175
ltoes -2.01401
224
root 11.0306 15.3758 0.333541 19.1368 2.81148 1.60976
lowerback 31.8189 -1.47994 -1.46122
upperback 4.4492 -2.39998 -0.430922
thorax -11.5108 -1.02864 1.23803
lowerneck -15.8928 -0.646383 -0.885448
upperneck -24.4032 -0.91623 -0.511059
head -4.95774 -0.362848 -0.0181382
rclavicle -2.60408e-014 3.18055e-015
rhumerus -33.5641 8.82699 -90.5774
rradius 49.8988
rwrist -28.8658
rhand -33.8515 25.0597
rfingers 7.12502
rthumb -7.03626 -4.80335
lclavicle -2.60408e-014 3.18055e-015
lhumerus -22.3852 -11.0825 85.7094
lradius 42.2295
lwrist 18.7908
lhand -28.3549 18.0573
lfingers 7.12502
lthumb -1.72866 48.03
rfemur -61.4672 6.63015 16.1989
rtibia 80.2564
rfoot -24.5091 -12.8058
rtoes -8.91043
lfemur -59.078 -3.59606 -25.0198
ltibia 76.1363
lfoot -25.1769 11.1375
ltoes -1.83913
225
root 11.0381 15.4901 0.34274 19.1462 2.45106 1.88403
lowerback 31.6203 -1.37001 -1.9015
upperback 4.45962 -2.42415 -0.573685
thorax -11.4041 -1.02748 1.32691
lowerneck -15.9535 -0.581689 -0.458601
upperneck -24.3447 -0.922721 -0.766781
head -4.93252 -0.394038 -0.172615
rclavicle 9.14409e-015 -3.57812e-015
rhumerus -33.767 8.47469 -90.4657
rradius 49.4555
rwrist -28.2125
rhand -34.2259 26.1571
rfingers 7.12502
rthumb -7.39758 -3.69352
lclavicle 9.14409e-015 -3.57812e-015
lhumerus -23.3093 -10.2884 85.6454
lradius 42.1747
lwrist 18.487
lhand -28.4673 17.9406
lfingers 7.12502
lthumb -1.83726 47.9124
rfemur -60.8943 6.74603 15.6786
rtibia 78.9127
rfoot -23.6508 -12.5138
rtoes -8.83512
lfemur -58.2522 -3.57365 -25.3015
ltibia 74.6323
lfoot -24.4172 11.2004
ltoes -1.77886
